<svg width="158" height="41" viewBox="0 0 158 41" fill="none" xmlns="http://www.w3.org/2000/svg">
<path d="M18.1768 8.77637V3.77637H2.41211V38.1293H18.1768V33.1293C14.9474 33.1293 11.8502 31.8464 9.56674 29.5629C7.28322 27.2793 6.00034 24.1823 6.00034 20.9529C6.00034 17.7234 7.28322 14.6263 9.56674 12.3428C11.8502 10.0593 14.9474 8.77637 18.1768 8.77637Z" fill="#E58246"/>
<path d="M18.1768 8.77637V33.1293C21.4062 33.1293 24.5033 31.8464 26.7869 29.5628C29.0704 27.2793 30.3532 24.1823 30.3532 20.9528C30.3532 17.7234 29.0704 14.6263 26.7869 12.3428C24.5033 10.0592 21.4062 8.77637 18.1768 8.77637Z" fill="#E58246"/>
<path d="M39.2002 11.835H42.7296V28.835H39.2002V11.835Z" fill="#394149"/>
<path d="M44.7056 23.0113C44.7056 21.7882 45.0688 20.5927 45.749 19.5762C46.4293 18.5598 47.396 17.7681 48.5267 17.3017C49.6574 16.8353 50.901 16.7151 52.1001 16.9562C53.2992 17.1974 54.3996 17.7892 55.262 18.6565C56.1243 19.5239 56.7099 20.6277 56.9442 21.8281C57.1785 23.0286 57.0512 24.2715 56.5782 25.3995C56.1053 26.5274 55.3082 27.4897 54.2879 28.164C53.2675 28.8385 52.0699 29.1947 50.8468 29.1878C50.0356 29.1941 49.2313 29.0385 48.481 28.7298C47.7308 28.4212 47.0496 27.9659 46.4776 27.3907C45.9056 26.8154 45.4543 26.1317 45.15 25.3797C44.8458 24.6277 44.6947 23.8225 44.7056 23.0113ZM53.5527 23.0113C53.5388 22.484 53.3697 21.9725 53.0667 21.5408C52.7636 21.1091 52.3401 20.7762 51.8488 20.584C51.3576 20.3918 50.8207 20.3486 50.3052 20.46C49.7895 20.5713 49.3182 20.8321 48.9501 21.21C48.582 21.5878 48.3334 22.0657 48.2355 22.584C48.1376 23.1024 48.1947 23.638 48.3996 24.124C48.6046 24.61 48.9482 25.0249 49.3878 25.3166C49.8272 25.6084 50.3428 25.764 50.8703 25.7642C51.2295 25.7713 51.5862 25.7041 51.9182 25.5669C52.2502 25.4299 52.5503 25.2258 52.7999 24.9674C53.0494 24.7091 53.2429 24.4019 53.3685 24.0654C53.494 23.7288 53.5487 23.37 53.5292 23.0113H53.5527Z" fill="#394149"/>
<path d="M70.9529 17.1878V28.2584C70.9529 32.1642 67.894 33.8231 64.7999 33.8231C63.7085 33.9126 62.6138 33.6958 61.6391 33.1969C60.6643 32.6981 59.848 31.9371 59.2823 30.9995L62.2587 29.2819C62.4999 29.7682 62.8836 30.1694 63.3586 30.4321C63.8337 30.6948 64.3775 30.8066 64.9176 30.7525C65.2617 30.7948 65.6109 30.7607 65.9402 30.6525C66.2696 30.5441 66.5709 30.3645 66.8226 30.1261C67.0745 29.8878 67.2705 29.5968 67.3967 29.2739C67.523 28.9511 67.5763 28.6042 67.5529 28.2584V27.1878C67.1422 27.6858 66.621 28.0811 66.0309 28.3425C65.4406 28.6039 64.7977 28.7241 64.1529 28.6937C62.5927 28.6937 61.0966 28.0739 59.9934 26.9707C58.8903 25.8677 58.2705 24.3714 58.2705 22.8113C58.2705 21.2512 58.8903 19.7551 59.9934 18.6519C61.0966 17.5487 62.5927 16.9289 64.1529 16.9289C64.7977 16.8985 65.4406 17.0187 66.0309 17.2801C66.621 17.5415 67.1422 17.9368 67.5529 18.4348V17.2584L70.9529 17.1878ZM67.5529 22.776C67.5763 22.2132 67.4309 21.6561 67.1352 21.1766C66.8396 20.6971 66.4073 20.3169 65.8938 20.0851C65.3804 19.8532 64.8095 19.7802 64.2542 19.8755C63.699 19.9708 63.1849 20.23 62.7782 20.6198C62.3715 21.0095 62.0906 21.5121 61.9718 22.0628C61.853 22.6135 61.9016 23.1871 62.1113 23.7099C62.3212 24.2327 62.6826 24.6808 63.1491 24.9966C63.6157 25.3124 64.166 25.4814 64.7293 25.4819C65.097 25.5084 65.466 25.4574 65.8126 25.3325C66.1593 25.2074 66.476 25.0111 66.742 24.756C67.0082 24.5011 67.2178 24.1931 67.3574 23.852C67.4971 23.5109 67.5637 23.1444 67.5529 22.776Z" fill="#394149"/>
<path d="M72.9408 23.0115C72.9408 21.7893 73.3034 20.5947 73.9826 19.5787C74.6618 18.5627 75.6271 17.7711 76.7564 17.304C77.8857 16.8369 79.1281 16.7152 80.3266 16.9545C81.5251 17.1938 82.6255 17.7832 83.489 18.6482C84.3522 19.5132 84.9395 20.6149 85.1765 21.8137C85.4135 23.0126 85.2895 24.2549 84.8203 25.3832C84.351 26.5117 83.5574 27.4755 82.5403 28.1527C81.523 28.83 80.3277 29.1903 79.1055 29.1879C78.2928 29.1958 77.4866 29.0413 76.7344 28.7336C75.9821 28.4258 75.2988 27.971 74.7247 27.3957C74.1505 26.8204 73.697 26.1363 73.3906 25.3835C73.0844 24.6306 72.9314 23.8242 72.9408 23.0115ZM81.7879 23.0115C81.774 22.4837 81.6046 21.9717 81.3011 21.5397C80.9975 21.1078 80.5732 20.775 80.0813 20.5831C79.5894 20.3912 79.0519 20.3487 78.536 20.4611C78.0201 20.5733 77.5488 20.8355 77.1812 21.2144C76.8135 21.5933 76.5659 22.0724 76.4694 22.5915C76.3728 23.1105 76.4315 23.6465 76.6383 24.1323C76.845 24.6182 77.1905 25.0322 77.6315 25.3225C78.0725 25.6127 78.5893 25.7665 79.1173 25.7644C79.4765 25.7715 79.8332 25.7043 80.1652 25.5671C80.4972 25.43 80.7973 25.2259 81.0468 24.9676C81.2964 24.7092 81.4899 24.402 81.6154 24.0656C81.741 23.729 81.7957 23.3702 81.7761 23.0115H81.7879Z" fill="#394149"/>
<path d="M86.9062 14.0702C86.9062 13.6561 87.0291 13.2511 87.2592 12.9068C87.4893 12.5624 87.8164 12.294 88.199 12.1355C88.5817 11.977 89.0027 11.9355 89.409 12.0163C89.8151 12.0971 90.1882 12.2966 90.4812 12.5894C90.774 12.8823 90.9734 13.2555 91.0542 13.6616C91.1351 14.0678 91.0935 14.4889 90.9351 14.8716C90.7766 15.2542 90.5081 15.5813 90.1638 15.8114C89.8194 16.0415 89.4146 16.1643 89.0004 16.1643C88.4468 16.1582 87.9178 15.9356 87.5264 15.5442C87.135 15.1528 86.9124 14.6237 86.9062 14.0702ZM87.2474 17.1878H90.7768V28.8349H87.2474V17.1878Z" fill="#394149"/>
<path d="M105.882 23.0113C105.922 23.7859 105.808 24.5607 105.547 25.291C105.286 26.0214 104.883 26.6929 104.362 27.2669C103.84 27.841 103.21 28.3062 102.508 28.6359C101.806 28.9655 101.046 29.153 100.271 29.1877C99.6132 29.2315 98.9543 29.1262 98.3432 28.8797C97.732 28.6332 97.1845 28.2519 96.7413 27.7642V33.5172H93.2119V17.1877H96.7413V18.2819C97.1851 17.7956 97.7331 17.4161 98.3443 17.1716C98.9554 16.927 99.614 16.824 100.271 16.8701C101.043 16.9048 101.8 17.0913 102.499 17.4187C103.199 17.7461 103.827 18.2082 104.348 18.7784C104.87 19.3487 105.273 20.016 105.536 20.7423C105.8 21.4686 105.917 22.2395 105.882 23.0113ZM102.353 23.0113C102.339 22.4648 102.164 21.9347 101.85 21.4873C101.536 21.0399 101.097 20.6949 100.588 20.496C100.079 20.2969 99.5228 20.2527 98.9886 20.3686C98.4545 20.4844 97.9665 20.7555 97.5857 21.1476C97.2049 21.5397 96.9483 22.0355 96.8481 22.5729C96.7479 23.1102 96.8085 23.6652 97.0224 24.1682C97.2363 24.6712 97.5938 25.0999 98.0503 25.4006C98.5067 25.7013 99.0418 25.8604 99.5884 25.8583C99.9627 25.8742 100.336 25.8108 100.684 25.6722C101.033 25.5336 101.348 25.323 101.609 25.0542C101.87 24.7854 102.071 24.4643 102.199 24.1123C102.328 23.7602 102.38 23.385 102.353 23.0113Z" fill="#394149"/>
<path d="M116.623 25.3409C116.623 28.0233 114.271 29.1645 111.776 29.1645C110.759 29.256 109.738 29.0404 108.844 28.5454C107.951 28.0505 107.227 27.2989 106.765 26.388L109.8 24.6704C109.92 25.0901 110.181 25.4559 110.539 25.7065C110.896 25.9571 111.329 26.0772 111.765 26.0468C112.6 26.0468 113.023 25.788 113.023 25.3174C113.023 24.0351 107.294 24.7174 107.294 20.6821C107.294 18.1409 109.435 16.8704 111.859 16.8704C112.78 16.8291 113.695 17.0381 114.507 17.4752C115.319 17.9122 115.998 18.5611 116.471 19.3527L113.435 20.9527C113.301 20.6492 113.082 20.3911 112.804 20.2094C112.527 20.0278 112.202 19.9305 111.871 19.9292C111.259 19.9292 110.894 20.1645 110.894 20.5762C110.894 21.9174 116.623 21.0351 116.623 25.3409Z" fill="#394149"/>
<path d="M129.412 17.188V28.835H125.883V27.7409C125.481 28.2253 124.972 28.6085 124.397 28.8599C123.82 29.1113 123.193 29.2236 122.565 29.188C120.212 29.188 118.2 27.5056 118.2 24.3645V17.188H121.73V23.835C121.701 24.1129 121.734 24.3935 121.826 24.6575C121.918 24.9214 122.065 25.1623 122.258 25.3638C122.452 25.565 122.687 25.722 122.947 25.8238C123.207 25.9254 123.486 25.9694 123.765 25.9527C125.035 25.9527 125.93 25.1998 125.93 23.5998V17.188H129.412Z" fill="#394149"/>
<path d="M149.411 21.6821V28.8351H145.882V21.988C145.882 20.8115 145.329 20.0821 144.211 20.0821C143.094 20.0821 142.388 20.8939 142.388 22.2704V28.8351H138.858V21.988C138.858 20.8115 138.306 20.0821 137.188 20.0821C136.07 20.0821 135.364 20.8939 135.364 22.2704V28.8351H131.835V17.188H135.364V18.2586C135.73 17.7857 136.207 17.4111 136.754 17.1687C137.3 16.9264 137.898 16.8238 138.494 16.8704C139.09 16.8392 139.686 16.9639 140.22 17.232C140.754 17.5001 141.209 17.9026 141.541 18.3998C141.929 17.8803 142.442 17.4675 143.033 17.2001C143.622 16.9326 144.271 16.8192 144.917 16.8704C147.67 16.8704 149.411 18.7763 149.411 21.6821Z" fill="#394149"/>
<path d="M152.376 17.1174C153.806 17.1174 154.965 15.9586 154.965 14.5292C154.965 13.0997 153.806 11.9409 152.376 11.9409C150.947 11.9409 149.788 13.0997 149.788 14.5292C149.788 15.9586 150.947 17.1174 152.376 17.1174Z" fill="#394149"/>
</svg>
