<svg width="24" height="24" viewBox="0 0 24 24" fill="none" xmlns="http://www.w3.org/2000/svg">
<path d="M9.80575 8.19781C10.2042 7.47951 10.1247 6.59042 9.60515 5.95445L7.49187 3.36769C7.11685 2.90865 6.42807 2.87425 6.0093 3.29364L3.93359 5.37244C2.40854 6.90216 2.99974 9.13113 3.95058 11.0793C6.08056 15.4435 8.99872 18.3568 12.9325 20.0748C14.915 20.9406 17.106 21.6216 18.6311 20.0919L20.7068 18.0131C21.1256 17.5937 21.0912 16.9039 20.6329 16.5283L18.05 14.4118C17.4149 13.8915 16.5272 13.8119 15.8099 14.2109L13.3237 15.5943C10.9516 13.9375 10.1129 13.1121 8.42449 10.6878L9.80575 8.19781Z" fill="#7A7A7A"/>
</svg>
