<svg width="17" height="16" viewBox="0 0 17 16" fill="none" xmlns="http://www.w3.org/2000/svg">
<path d="M0 2.17289C0 1.64878 0.183441 1.2164 0.550306 0.875745C0.917172 0.535074 1.39411 0.364746 1.9811 0.364746C2.55762 0.364746 3.02406 0.532448 3.38045 0.867883C3.74732 1.21379 3.93076 1.66451 3.93076 2.22006C3.93076 2.7232 3.75257 3.14247 3.39618 3.47791C3.02931 3.82381 2.54713 3.99677 1.94966 3.99677H1.93393C1.35742 3.99677 0.890977 3.82381 0.534583 3.47791C0.178189 3.132 0 2.69699 0 2.17289ZM0.204399 15.9305V5.42756H3.69491V15.9305H0.204399ZM5.62885 15.9305H9.11936V10.0659C9.11936 9.69898 9.16129 9.41596 9.24514 9.21681C9.39189 8.86042 9.61463 8.55906 9.91337 8.31274C10.2121 8.06641 10.5868 7.94325 11.0376 7.94325C12.2116 7.94325 12.7985 8.73464 12.7985 10.3174V15.9305H16.2891V9.90863C16.2891 8.35728 15.9222 7.18068 15.1884 6.37881C14.4547 5.57693 13.4851 5.17599 12.2797 5.17599C10.9275 5.17599 9.87406 5.75775 9.11936 6.92125V6.9527H9.10364L9.11936 6.92125V5.42756H5.62885C5.6498 5.76298 5.66029 6.80594 5.66029 8.55645C5.66029 10.3069 5.6498 12.765 5.62885 15.9305Z" fill="white"/>
</svg>
