<svg width="127" height="32" viewBox="0 0 127 32" fill="none" xmlns="http://www.w3.org/2000/svg">
<path d="M14.5412 6.25879V2.25879H1.92944V29.7412H14.5412V25.7412C11.9577 25.7412 9.47994 24.7148 7.65315 22.888C5.82633 21.0612 4.80003 18.5835 4.80003 16C4.80003 13.4164 5.82633 10.9387 7.65315 9.11192C9.47994 7.2851 11.9577 6.25879 14.5412 6.25879Z" fill="white"/>
<path d="M14.5413 6.25879V25.7412C17.1248 25.7412 19.6025 24.7148 21.4294 22.888C23.2562 21.0612 24.2824 18.5835 24.2824 16C24.2824 13.4164 23.2562 10.9387 21.4294 9.11192C19.6025 7.2851 17.1248 6.25879 14.5413 6.25879Z" fill="white"/>
<path d="M31.3601 8.70605H34.1836V22.3061H31.3601V8.70605Z" fill="white"/>
<path d="M35.7646 17.6471C35.7646 16.6687 36.0551 15.7123 36.5993 14.8991C37.1435 14.0859 37.9169 13.4526 38.8214 13.0794C39.726 12.7063 40.7209 12.6101 41.6802 12.8031C42.6394 12.996 43.5198 13.4694 44.2097 14.1633C44.8996 14.8572 45.368 15.7402 45.5555 16.7006C45.7429 17.661 45.641 18.6553 45.2627 19.5577C44.8843 20.46 44.2467 21.2298 43.4304 21.7693C42.6141 22.3089 41.656 22.5939 40.6775 22.5883C40.0286 22.5934 39.3851 22.4689 38.7849 22.2219C38.1847 21.975 37.6398 21.6108 37.1822 21.1507C36.7246 20.6904 36.3636 20.1434 36.1201 19.5418C35.8767 18.9402 35.7559 18.2961 35.7646 17.6471ZM42.8423 17.6471C42.8311 17.2253 42.6959 16.8161 42.4535 16.4707C42.211 16.1253 41.8722 15.8591 41.4791 15.7053C41.0862 15.5515 40.6567 15.517 40.2442 15.6061C39.8317 15.6951 39.4547 15.9038 39.1602 16.2061C38.8657 16.5083 38.6668 16.8906 38.5885 17.3053C38.5102 17.72 38.5559 18.1485 38.7198 18.5373C38.8838 18.9261 39.1587 19.258 39.5103 19.4914C39.8618 19.7248 40.2743 19.8493 40.6964 19.8495C40.9837 19.8551 41.2691 19.8014 41.5347 19.6916C41.8003 19.582 42.0404 19.4187 42.24 19.212C42.4396 19.0053 42.5944 18.7596 42.6949 18.4904C42.7953 18.2211 42.8391 17.9341 42.8234 17.6471H42.8423Z" fill="white"/>
<path d="M56.7623 12.9881V21.8446C56.7623 24.9693 54.3153 26.2963 51.84 26.2963C50.9669 26.368 50.0911 26.1945 49.3113 25.7954C48.5315 25.3964 47.8785 24.7875 47.4259 24.0375L49.807 22.6634C50 23.0525 50.3069 23.3734 50.687 23.5836C51.067 23.7938 51.502 23.8832 51.9341 23.8399C52.2094 23.8738 52.4887 23.8465 52.7522 23.7599C53.0157 23.6732 53.2567 23.5295 53.4582 23.3388C53.6597 23.1481 53.8165 22.9154 53.9174 22.657C54.0184 22.3987 54.0611 22.1213 54.0423 21.8446V20.9881C53.7138 21.3865 53.2968 21.7027 52.8247 21.9119C52.3526 22.121 51.8382 22.2172 51.3223 22.1928C50.0742 22.1928 48.8773 21.697 47.9948 20.8145C47.1123 19.932 46.6165 18.735 46.6165 17.4869C46.6165 16.2388 47.1123 15.0419 47.9948 14.1594C48.8773 13.2769 50.0742 12.781 51.3223 12.781C51.8382 12.7567 52.3526 12.8529 52.8247 13.062C53.2968 13.2711 53.7138 13.5874 54.0423 13.9858V13.0446L56.7623 12.9881ZM54.0423 17.4587C54.0611 17.0084 53.9447 16.5628 53.7082 16.1792C53.4717 15.7955 53.1259 15.4914 52.7151 15.3059C52.3044 15.1204 51.8476 15.0621 51.4034 15.1383C50.9592 15.2146 50.5479 15.4219 50.2226 15.7337C49.8972 16.0455 49.6726 16.4476 49.5775 16.8882C49.4824 17.3287 49.5213 17.7875 49.6891 18.2058C49.857 18.6241 50.1462 18.9826 50.5193 19.2352C50.8926 19.4878 51.3329 19.623 51.7835 19.6234C52.0776 19.6446 52.3729 19.6038 52.6502 19.5039C52.9275 19.4038 53.1809 19.2467 53.3937 19.0427C53.6066 18.8387 53.7743 18.5923 53.886 18.3195C53.9977 18.0466 54.051 17.7534 54.0423 17.4587Z" fill="white"/>
<path d="M58.3529 17.6472C58.3529 16.6696 58.6429 15.7139 59.1863 14.9011C59.7296 14.0883 60.5019 13.455 61.4053 13.0813C62.3087 12.7076 63.3027 12.6103 64.2615 12.8017C65.2203 12.9931 66.1006 13.4647 66.7914 14.1566C67.482 14.8487 67.9518 15.73 68.1414 16.689C68.331 17.6482 68.2318 18.642 67.8564 19.5447C67.481 20.4474 66.8461 21.2184 66.0324 21.7603C65.2186 22.3021 64.2623 22.5903 63.2846 22.5884C62.6345 22.5947 61.9895 22.4712 61.3877 22.2249C60.7859 21.9787 60.2393 21.6149 59.78 21.1546C59.3206 20.6944 58.9578 20.1471 58.7127 19.5448C58.4677 18.9426 58.3453 18.2974 58.3529 17.6472ZM65.4305 17.6472C65.4194 17.225 65.2839 16.8154 65.0411 16.4698C64.7982 16.1243 64.4587 15.8581 64.0652 15.7046C63.6717 15.5511 63.2417 15.5171 62.829 15.607C62.4163 15.6968 62.0393 15.9064 61.7452 16.2096C61.451 16.5128 61.2529 16.896 61.1757 17.3112C61.0985 17.7265 61.1454 18.1553 61.3108 18.5439C61.4762 18.9326 61.7526 19.2638 62.1054 19.4961C62.4582 19.7283 62.8716 19.8513 63.294 19.8496C63.5814 19.8552 63.8668 19.8015 64.1324 19.6918C64.398 19.5821 64.638 19.4188 64.8377 19.2121C65.0373 19.0055 65.1921 18.7597 65.2925 18.4905C65.393 18.2213 65.4367 17.9342 65.4211 17.6472H65.4305Z" fill="white"/>
<path d="M69.5247 10.4941C69.5247 10.1628 69.6229 9.8389 69.807 9.56341C69.9911 9.28789 70.2528 9.07317 70.5588 8.94637C70.865 8.81957 71.2018 8.7864 71.5268 8.85104C71.8517 8.91568 72.1503 9.07524 72.3846 9.30953C72.6189 9.54384 72.7784 9.84238 72.8431 10.1673C72.9077 10.4923 72.8745 10.8291 72.7477 11.1353C72.6209 11.4413 72.4062 11.703 72.1307 11.8871C71.8552 12.0712 71.5313 12.1694 71.2 12.1694C70.7571 12.1645 70.3339 11.9865 70.0208 11.6733C69.7076 11.3602 69.5296 10.937 69.5247 10.4941ZM69.7976 12.9883H72.6211V22.3059H69.7976V12.9883Z" fill="white"/>
<path d="M84.7058 17.6471C84.7374 18.2668 84.6462 18.8866 84.4374 19.4709C84.2286 20.0552 83.9063 20.5924 83.489 21.0516C83.0717 21.5109 82.5678 21.8831 82.0061 22.1468C81.4445 22.4105 80.8363 22.5605 80.2164 22.5883C79.6904 22.6233 79.1632 22.5391 78.6744 22.3419C78.1854 22.1446 77.7474 21.8396 77.3929 21.4495V26.0518H74.5693V12.9883H77.3929V13.8636C77.7479 13.4746 78.1863 13.171 78.6752 12.9754C79.1642 12.7797 79.691 12.6973 80.2164 12.7342C80.8338 12.7619 81.4396 12.9111 81.9994 13.173C82.5591 13.435 83.0618 13.8047 83.4786 14.2608C83.8955 14.717 84.2185 15.2509 84.429 15.832C84.6395 16.4129 84.7337 17.0297 84.7058 17.6471ZM81.8823 17.6471C81.8712 17.2099 81.7312 16.7858 81.4801 16.4279C81.229 16.07 80.8778 15.794 80.4705 15.6349C80.0633 15.4756 79.6181 15.4402 79.1907 15.5329C78.7634 15.6256 78.373 15.8425 78.0683 16.1562C77.7637 16.4699 77.5584 16.8665 77.4783 17.2964C77.3981 17.7263 77.4466 18.1702 77.6177 18.5727C77.7888 18.975 78.0748 19.318 78.44 19.5585C78.8052 19.7991 79.2332 19.9264 79.6705 19.9248C79.97 19.9375 80.2688 19.8867 80.5473 19.7759C80.8259 19.665 81.0779 19.4965 81.2867 19.2815C81.4955 19.0664 81.6565 18.8096 81.7592 18.528C81.8619 18.2463 81.9037 17.9461 81.8823 17.6471Z" fill="white"/>
<path d="M93.2989 19.5105C93.2989 21.6564 91.4166 22.5694 89.4213 22.5694C88.6074 22.6426 87.7904 22.4701 87.0757 22.0741C86.3609 21.6782 85.7814 21.0769 85.4119 20.3482L87.8401 18.9741C87.9363 19.3099 88.1449 19.6025 88.431 19.803C88.7171 20.0034 89.0633 20.0995 89.4119 20.0753C90.0801 20.0753 90.4189 19.8682 90.4189 19.4917C90.4189 18.4658 85.8354 19.0117 85.8354 15.7835C85.8354 13.7505 87.5483 12.7341 89.4872 12.7341C90.2241 12.701 90.9563 12.8683 91.6058 13.2179C92.2554 13.5676 92.7982 14.0866 93.1766 14.72L90.7483 16C90.641 15.7571 90.4658 15.5506 90.2437 15.4053C90.0215 15.26 89.762 15.1822 89.4966 15.1811C89.0072 15.1811 88.7154 15.3694 88.7154 15.6988C88.7154 16.7717 93.2989 16.0658 93.2989 19.5105Z" fill="white"/>
<path d="M103.529 12.9883V22.3059H100.706V21.4306C100.385 21.8181 99.9775 22.1247 99.5172 22.3258C99.0561 22.5269 98.5544 22.6168 98.0518 22.5883C96.1695 22.5883 94.5601 21.2424 94.5601 18.7295V12.9883H97.3836V18.3059C97.361 18.5282 97.3874 18.7527 97.4608 18.9639C97.5342 19.175 97.6518 19.3678 97.8062 19.5289C97.9615 19.6899 98.1497 19.8155 98.3577 19.8969C98.5657 19.9782 98.7888 20.0134 99.0118 20C100.028 20 100.744 19.3977 100.744 18.1177V12.9883H103.529Z" fill="white"/>
<path d="M119.529 16.5836V22.306H116.706V16.8283C116.706 15.8871 116.264 15.3036 115.369 15.3036C114.475 15.3036 113.911 15.953 113.911 17.0542V22.306H111.087V16.8283C111.087 15.8871 110.645 15.3036 109.751 15.3036C108.856 15.3036 108.292 15.953 108.292 17.0542V22.306H105.468V12.9883H108.292V13.8448C108.584 13.4664 108.966 13.1668 109.403 12.9729C109.84 12.779 110.319 12.6969 110.795 12.7342C111.273 12.7092 111.749 12.809 112.176 13.0235C112.603 13.238 112.968 13.56 113.233 13.9577C113.544 13.5421 113.954 13.2119 114.426 12.998C114.898 12.784 115.417 12.6932 115.934 12.7342C118.136 12.7342 119.529 14.2589 119.529 16.5836Z" fill="white"/>
<path d="M121.901 12.9317C123.045 12.9317 123.972 12.0046 123.972 10.8611C123.972 9.71759 123.045 8.79053 121.901 8.79053C120.758 8.79053 119.831 9.71759 119.831 10.8611C119.831 12.0046 120.758 12.9317 121.901 12.9317Z" fill="white"/>
</svg>
