<svg width="16" height="14" viewBox="0 0 16 14" fill="none" xmlns="http://www.w3.org/2000/svg">
<path d="M14.2916 3.87366C14.2979 4.017 14.2979 4.15383 14.2979 4.29717C14.3042 8.64311 11.1112 13.6602 5.27211 13.6602C3.54992 13.6602 1.85915 13.1454 0.407227 12.1811C0.658642 12.2137 0.910057 12.2267 1.16147 12.2267C2.58825 12.2267 3.97732 11.7315 5.10241 10.8128C3.74476 10.7868 2.55054 9.86805 2.13571 8.52583C2.6134 8.62356 3.10366 8.60402 3.56877 8.46719C2.09171 8.16747 1.02948 6.81873 1.02319 5.24846C1.02319 5.23543 1.02319 5.2224 1.02319 5.20936C1.46317 5.46347 1.95972 5.60682 2.46255 5.61985C1.07348 4.65553 0.639786 2.73342 1.48203 1.2283C3.09737 3.28725 5.47324 4.53174 8.02511 4.66857C7.76741 3.52833 8.11939 2.32945 8.94277 1.52151C10.2187 0.27702 12.23 0.342176 13.4368 1.66485C14.1471 1.52151 14.8322 1.24785 15.4544 0.863428C15.2156 1.62576 14.719 2.27081 14.0591 2.68129C14.6876 2.60311 15.3036 2.42718 15.8818 2.16656C15.4544 2.83115 14.9139 3.40453 14.2916 3.87366Z" fill="white"/>
</svg>
