<svg width="18" height="18" viewBox="0 0 18 18" fill="none" xmlns="http://www.w3.org/2000/svg">
<path d="M3.3877 16.6602L2.80957 17.5264L1.07715 16.3691L1.65527 15.5029L3.3877 16.6602ZM9.05566 1.13867L8.5 2.01953L7.41504 3.73828L6.85938 4.61914L5.09766 3.50781L5.65332 2.62695L5.67578 2.58984L5.36133 2.43945L5.18652 2.36914C4.31117 2.08347 3.3754 2.73286 3.375 3.68945V7.54102H17.7803V9.625H16.708V10.4199C16.708 11.821 16.2292 13.1099 15.4287 14.1348L15.5088 14.2549L16.3418 15.5029L16.9209 16.3691L15.1875 17.5264L14.6094 16.6602L13.8652 15.5439C12.9373 16.1247 11.8413 16.4619 10.666 16.4619H7.33301C6.15698 16.4619 5.06019 16.1243 4.13184 15.543L3.3877 16.6602L2.52148 16.0811L1.65527 15.5029L2.48828 14.2549L2.56836 14.1338C1.76849 13.1091 1.29105 11.8204 1.29102 10.4199V9.625H0.216797V7.54102H1.29102V3.68945C1.29143 1.2154 3.79358 -0.437426 6.04395 0.464844L6.26172 0.560547L6.79492 0.816406L7.29297 0.0273438L9.05566 1.13867ZM3.375 10.4199C3.37509 12.606 5.14694 14.3779 7.33301 14.3779H10.666C12.8519 14.3778 14.6249 12.6059 14.625 10.4199V9.625H3.375V10.4199Z" fill="#E58246"/>
</svg>
