<svg width="20" height="16" viewBox="0 0 20 16" fill="none" xmlns="http://www.w3.org/2000/svg">
<path d="M15.292 0.466309C16.7876 0.466485 18.001 1.67963 18.001 3.17529V7.30225C18.679 7.79468 19.1221 8.59182 19.1221 9.49365V15.8003H17.0381V13.4185H2.95898V15.8003H0.875V9.49365C0.875 8.59065 1.31848 7.79257 1.99805 7.30029V3.17529C1.99805 1.67952 3.21126 0.466309 4.70703 0.466309H15.292ZM3.58398 8.86865C3.23881 8.86865 2.95898 9.14847 2.95898 9.49365V11.3354H17.0381V9.49365C17.0381 9.14858 16.7581 8.86883 16.4131 8.86865H3.58398ZM4.70703 2.55029C4.36185 2.55029 4.08203 2.83012 4.08203 3.17529V6.78467H5.49414V6.30518C5.49414 4.8094 6.70735 3.59619 8.20312 3.59619H11.7959C13.2915 3.59641 14.5039 4.80954 14.5039 6.30518V6.78467H15.917V3.17529C15.917 2.83022 15.637 2.55047 15.292 2.55029H4.70703ZM8.20312 5.68018C7.85795 5.68018 7.57812 5.96 7.57812 6.30518V6.78467H12.4209V6.30518C12.4209 5.96013 12.1409 5.6804 11.7959 5.68018H8.20312Z" fill="#E58246"/>
</svg>
