<svg width="32" height="32" viewBox="0 0 32 32" fill="none" xmlns="http://www.w3.org/2000/svg">
<path d="M25.8469 22.8603C27.204 20.916 28 18.551 28 16C28 9.37258 22.6274 4 16 4C9.37258 4 4 9.37258 4 16C4 22.6274 9.37258 28 16 28C17.8988 28 19.6946 27.559 21.2906 26.7738C23.2184 27.4596 25.3481 27.9011 27.421 27.8113C27.9272 27.7894 28.1781 27.2085 27.9076 26.78C27.2067 25.6697 26.4804 24.2616 25.8469 22.8603Z" stroke="#9B9B9B" stroke-width="2.66667"/>
<path d="M11.3333 13.3335L14 13.3335" stroke="#9B9B9B" stroke-width="2.66667" stroke-linecap="round" stroke-linejoin="round"/>
<path d="M11.3327 18.6665L20.666 18.6665" stroke="#9B9B9B" stroke-width="2.66667" stroke-linecap="round" stroke-linejoin="round"/>
</svg>
