<svg width="29" height="22" viewBox="0 0 29 22" fill="none" xmlns="http://www.w3.org/2000/svg">
<path d="M25 0H4C3.07205 0.000992641 2.18238 0.37006 1.52622 1.02622C0.87006 1.68238 0.500993 2.57205 0.5 3.5V18.5C0.500993 19.428 0.87006 20.3176 1.52622 20.9738C2.18238 21.6299 3.07205 21.999 4 22H25C25.928 21.999 26.8176 21.6299 27.4738 20.9738C28.1299 20.3176 28.499 19.428 28.5 18.5V3.5C28.499 2.57205 28.1299 1.68238 27.4738 1.02622C26.8176 0.37006 25.928 0.000992641 25 0ZM24.1138 5.78938L15.1138 12.7894C14.9382 12.9258 14.7223 12.9999 14.5 12.9999C14.2777 12.9999 14.0618 12.9258 13.8862 12.7894L4.88625 5.78938C4.78051 5.70952 4.69169 5.60945 4.62496 5.49497C4.55823 5.3805 4.51491 5.2539 4.49753 5.12254C4.48015 4.99118 4.48905 4.85767 4.52371 4.72978C4.55837 4.60189 4.6181 4.48216 4.69944 4.37755C4.78077 4.27294 4.88208 4.18554 4.99749 4.12043C5.11289 4.05532 5.24008 4.01379 5.37168 3.99825C5.50327 3.98272 5.63664 3.9935 5.76403 4.02996C5.89142 4.06642 6.0103 4.12783 6.11375 4.21062L14.5 10.7331L22.8862 4.21062C23.096 4.05226 23.3596 3.98281 23.6201 4.01728C23.8806 4.05175 24.117 4.18738 24.2783 4.39483C24.4396 4.60228 24.5128 4.86488 24.482 5.12585C24.4512 5.38682 24.3189 5.62518 24.1138 5.78938Z" fill="white"/>
</svg>
