<svg width="32" height="32" viewBox="0 0 32 32" fill="none" xmlns="http://www.w3.org/2000/svg">
<path d="M4.52148 11.1318V26.3135H21.3831" stroke="#9B9B9B" stroke-width="1.8" stroke-linecap="round" stroke-linejoin="round"/>
<path d="M12.9043 11.1318V12.2725M17.5784 11.1318V12.2725" stroke="#9B9B9B" stroke-width="1.8" stroke-linecap="round" stroke-linejoin="round"/>
<path d="M2.68555 12.2725L15.2393 4.46973L19.571 7.16206" stroke="#9B9B9B" stroke-width="1.8" stroke-linecap="round" stroke-linejoin="round"/>
<path d="M7.64648 19.6729C7.64648 18.8444 8.31806 18.1729 9.14648 18.1729H11.4043C12.2327 18.1729 12.9043 18.8444 12.9043 19.6729V26.3135H7.64648V19.6729Z" fill="#9B9B9B"/>
<path d="M28.7505 12.0178L27.941 11.6245C27.7581 12.001 27.8588 12.4538 28.1841 12.7172L28.7505 12.0178ZM22.3721 12.0178L22.9385 12.7172C23.2638 12.4538 23.3645 12.001 23.1816 11.6245L22.3721 12.0178ZM28.2049 10.4713C28.2049 10.8866 28.1098 11.2771 27.941 11.6245L29.56 12.4111C29.8453 11.8239 30.0049 11.165 30.0049 10.4713H28.2049ZM25.5613 7.82773C27.0213 7.82773 28.2049 9.0113 28.2049 10.4713H30.0049C30.0049 8.01719 28.0154 6.02773 25.5613 6.02773V7.82773ZM22.9177 10.4713C22.9177 9.0113 24.1013 7.82773 25.5613 7.82773V6.02773C23.1072 6.02773 21.1177 8.01719 21.1177 10.4713H22.9177ZM23.1816 11.6245C23.0128 11.2771 22.9177 10.8866 22.9177 10.4713H21.1177C21.1177 11.165 21.2773 11.8239 21.5626 12.4111L23.1816 11.6245ZM21.3902 15.9607C21.3902 14.6514 21.9925 13.4834 22.9385 12.7172L21.8057 11.3184C20.4558 12.4117 19.5902 14.0855 19.5902 15.9607H21.3902ZM25.5613 20.1318C23.2577 20.1318 21.3902 18.2644 21.3902 15.9607H19.5902C19.5902 19.2585 22.2636 21.9318 25.5613 21.9318V20.1318ZM29.7324 15.9607C29.7324 18.2644 27.8649 20.1318 25.5613 20.1318V21.9318C28.859 21.9318 31.5324 19.2585 31.5324 15.9607H29.7324ZM28.1841 12.7172C29.1301 13.4834 29.7324 14.6514 29.7324 15.9607H31.5324C31.5324 14.0855 30.6668 12.4117 29.3169 11.3184L28.1841 12.7172Z" fill="#9B9B9B"/>
<path d="M25.5527 15.0342V26.3135" stroke="#9B9B9B" stroke-width="1.8" stroke-linecap="round" stroke-linejoin="round"/>
</svg>
