<svg width="17" height="18" viewBox="0 0 17 18" fill="none" xmlns="http://www.w3.org/2000/svg">
<path d="M16.5998 5.64204C16.5607 4.77472 16.4206 4.18129 16.2218 3.66285C16.0133 3.12811 15.7363 2.67163 15.2833 2.22166C14.8304 1.7717 14.3774 1.48803 13.843 1.28261C13.3249 1.08045 12.7318 0.943505 11.865 0.904378C10.995 0.865251 10.718 0.855469 8.5086 0.855469C6.29598 0.855469 6.01899 0.865251 5.15219 0.904378C4.28539 0.943505 3.69232 1.08371 3.17419 1.28261C2.63651 1.49129 2.1803 1.76844 1.73061 2.22166C1.28092 2.67489 0.997413 3.12811 0.792118 3.66285C0.59334 4.18129 0.453218 4.77472 0.414114 5.64204C0.37501 6.51262 0.365234 6.78978 0.365234 9.00047C0.365234 11.2144 0.37501 11.4916 0.414114 12.3589C0.453218 13.2262 0.59334 13.8196 0.792118 14.3381C1.00067 14.8728 1.27766 15.3293 1.73061 15.7793C2.1803 16.2325 2.63651 16.5129 3.17093 16.7183C3.68906 16.9205 4.28213 17.0574 5.14893 17.0966C6.01899 17.1357 6.29598 17.1455 8.50535 17.1455C10.718 17.1455 10.995 17.1357 11.8618 17.0966C12.7286 17.0574 13.3216 16.9172 13.8398 16.7183C14.3742 16.5096 14.8304 16.2325 15.2801 15.7793C15.7298 15.326 16.0133 14.8728 16.2186 14.3381C16.4206 13.8196 16.5575 13.2262 16.5966 12.3589C16.6357 11.4883 16.6455 11.2112 16.6455 9.00047C16.6455 6.78978 16.6389 6.50936 16.5998 5.64204ZM15.1367 12.2937C15.1009 13.0893 14.9673 13.5229 14.8565 13.8066C14.7098 14.1848 14.5306 14.4587 14.2438 14.7457C13.9571 15.0326 13.6866 15.2054 13.3053 15.3587C13.0186 15.4695 12.5852 15.6032 11.7933 15.6391C10.9363 15.6782 10.6789 15.688 8.50209 15.688C6.32531 15.688 6.06787 15.6782 5.21085 15.6391C4.41574 15.6032 3.98234 15.4695 3.69883 15.3587C3.32083 15.2119 3.0471 15.0326 2.76034 14.7457C2.47358 14.4587 2.30087 14.1881 2.14772 13.8066C2.03692 13.5197 1.90332 13.086 1.86747 12.2937C1.82837 11.4361 1.81859 11.1786 1.81859 9.00047C1.81859 6.82238 1.82837 6.56479 1.86747 5.70725C1.90332 4.91167 2.03692 4.478 2.14772 4.19433C2.29436 3.8161 2.47358 3.54221 2.76034 3.25528C3.0471 2.96834 3.31757 2.79553 3.69883 2.64228C3.9856 2.53142 4.419 2.39774 5.21085 2.36187C6.06787 2.32274 6.32531 2.31296 8.50209 2.31296C10.6789 2.31296 10.9363 2.32274 11.7933 2.36187C12.5884 2.39774 13.0218 2.53142 13.3053 2.64228C13.6833 2.78901 13.9571 2.96834 14.2438 3.25528C14.5306 3.54221 14.7033 3.81284 14.8565 4.19433C14.9673 4.48127 15.1009 4.91493 15.1367 5.70725C15.1758 6.56479 15.1856 6.82238 15.1856 9.00047C15.1856 11.1786 15.1725 11.4361 15.1367 12.2937Z" fill="white"/>
<path d="M8.50247 4.81396C6.18883 4.81396 4.31836 6.68881 4.31836 9.00059C4.31836 11.3156 6.19208 13.1872 8.50247 13.1872C10.8129 13.1872 12.6866 11.3091 12.6866 9.00059C12.6866 6.68555 10.8161 4.81396 8.50247 4.81396ZM8.50247 11.7167C7.00349 11.7167 5.78801 10.5005 5.78801 9.00059C5.78801 7.50071 7.00349 6.2845 8.50247 6.2845C10.0014 6.2845 11.2169 7.50071 11.2169 9.00059C11.2169 10.5005 10.0014 11.7167 8.50247 11.7167Z" fill="white"/>
<path d="M12.8506 5.62873C13.3906 5.62873 13.8282 5.19078 13.8282 4.65055C13.8282 4.11031 13.3906 3.67236 12.8506 3.67236C12.3107 3.67236 11.873 4.11031 11.873 4.65055C11.873 5.19078 12.3107 5.62873 12.8506 5.62873Z" fill="white"/>
<path d="M0.355469 9.00047C0.355469 11.2144 0.365245 11.4916 0.404349 12.3589C0.443452 13.2262 0.583574 13.8196 0.782352 14.3381C0.990906 14.8728 1.26789 15.3293 1.72084 15.7793C2.17054 16.2292 2.62675 16.5129 3.16117 16.7183C3.67929 16.9205 4.27237 17.0574 5.13917 17.0966C6.00923 17.1357 6.28621 17.1455 8.49558 17.1455C10.7082 17.1455 10.9852 17.1357 11.852 17.0966C12.7188 17.0574 13.3119 16.9172 13.83 16.7183C14.3644 16.5096 14.8206 16.2325 15.2703 15.7793C15.72 15.3293 16.0035 14.8728 16.2088 14.3381C16.4108 13.8196 16.5477 13.2262 16.5868 12.3589C16.6259 11.4883 16.6357 11.2112 16.6357 9.00047C16.6357 6.78652 16.6259 6.50936 16.5868 5.64204C16.5477 4.77472 16.4076 4.18129 16.2088 3.66285C16.0003 3.12811 15.7233 2.67163 15.2703 2.22166C14.8239 1.76844 14.3677 1.48803 13.8333 1.28261C13.3151 1.08045 12.7221 0.943505 11.8552 0.904378C10.9852 0.865251 10.7082 0.855469 8.49884 0.855469C6.28621 0.855469 6.00923 0.865251 5.14243 0.904378C4.27563 0.943505 3.68255 1.08371 3.16443 1.28261C2.63001 1.49129 2.1738 1.76844 1.7241 2.22166C1.27441 2.67489 0.990906 3.12811 0.785611 3.66285C0.583574 4.18129 0.443452 4.77472 0.404349 5.64204C0.365245 6.50936 0.355469 6.78652 0.355469 9.00047ZM1.82512 9.00047C1.82512 6.82564 1.8349 6.56479 1.874 5.70725C1.90985 4.91167 2.04345 4.478 2.15424 4.19433C2.30088 3.8161 2.48011 3.54221 2.76687 3.25528C3.05363 2.96834 3.3241 2.79553 3.70536 2.64228C3.99212 2.53142 4.42552 2.39774 5.21738 2.36187C6.0744 2.32274 6.33184 2.31296 8.50861 2.31296C10.6854 2.31296 10.9428 2.32274 11.7999 2.36187C12.595 2.39774 13.0284 2.53142 13.3119 2.64228C13.6899 2.78901 13.9636 2.96834 14.2504 3.25528C14.5371 3.54221 14.7098 3.81284 14.863 4.19433C14.9738 4.48127 15.1074 4.91493 15.1432 5.70725C15.1823 6.56479 15.1921 6.82238 15.1921 9.00047C15.1921 11.1786 15.1823 11.4361 15.1432 12.2937C15.1074 13.0893 14.9738 13.5229 14.863 13.8066C14.7163 14.1848 14.5371 14.4587 14.2504 14.7457C13.9636 15.0326 13.6931 15.2054 13.3119 15.3587C13.0251 15.4695 12.5917 15.6032 11.7999 15.6391C10.9428 15.6782 10.6854 15.688 8.50861 15.688C6.33184 15.688 6.0744 15.6782 5.21738 15.6391C4.42227 15.6032 3.98887 15.4695 3.70536 15.3587C3.32736 15.2119 3.05363 15.0326 2.76687 14.7457C2.48011 14.4587 2.3074 14.1881 2.15424 13.8066C2.04345 13.5197 1.90985 13.086 1.874 12.2937C1.83164 11.4361 1.82512 11.1753 1.82512 9.00047Z" fill="white"/>
</svg>
