<svg width="32" height="32" viewBox="0 0 32 32" fill="none" xmlns="http://www.w3.org/2000/svg">
<g clip-path="url(#clip0_1_669)">
<path d="M12.682 14.8903L13.6248 15.8331C14.0083 15.4495 14.1213 14.8719 13.9105 14.3721L12.682 14.8903ZM4.13942 23.4328L3.19661 22.49C2.87129 22.8153 2.73667 23.2854 2.84044 23.7336L4.13942 23.4328ZM5.06844 27.4454L3.76946 27.7461C3.91164 28.3602 4.46439 28.7908 5.09458 28.7785L5.06844 27.4454ZM8.0927 27.3861L8.11884 28.7192C8.62033 28.7093 9.07388 28.4189 9.2926 27.9675L8.0927 27.3861ZM9.02172 25.4687V24.1354C8.5107 24.1354 8.04464 24.4275 7.82182 24.8874L9.02172 25.4687ZM11.9867 25.4687L11.9867 26.8021C12.6502 26.8021 13.2128 26.3142 13.3066 25.6573L11.9867 25.4687ZM12.4808 22.0096L12.2193 20.7022C11.665 20.8131 11.2409 21.2614 11.1609 21.8211L12.4808 22.0096ZM14.9516 21.5155L15.2131 22.8229C15.4684 22.7718 15.7032 22.6471 15.8885 22.4642L14.9516 21.5155ZM17.2724 19.2237L17.7186 17.9673C17.2367 17.7961 16.6994 17.9157 16.3355 18.275L17.2724 19.2237ZM24.4946 7.24811C27.0325 9.78602 27.0325 13.9008 24.4946 16.4387L26.3802 18.3243C29.9595 14.745 29.9595 8.9418 26.3802 5.36249L24.4946 7.24811ZM15.304 7.24811C17.8419 4.71019 21.9567 4.7102 24.4946 7.24811L26.3802 5.36249C22.8009 1.78318 16.9977 1.78318 13.4184 5.36249L15.304 7.24811ZM13.9105 14.3721C12.9125 12.0059 13.3797 9.17246 15.304 7.24811L13.4184 5.36249C10.7008 8.08005 10.0485 12.0771 11.4534 15.4084L13.9105 14.3721ZM5.08222 24.3756L13.6248 15.8331L11.7391 13.9475L3.19661 22.49L5.08222 24.3756ZM6.36741 27.1446L5.43839 23.1321L2.84044 23.7336L3.76946 27.7461L6.36741 27.1446ZM8.06656 26.053L5.0423 26.1123L5.09458 28.7785L8.11884 28.7192L8.06656 26.053ZM7.82182 24.8874L6.8928 26.8047L9.2926 27.9675L10.2216 26.0501L7.82182 24.8874ZM11.9867 24.1354L9.02172 24.1354L9.02172 26.8021L11.9867 26.8021L11.9867 24.1354ZM11.1609 21.8211L10.6667 25.2802L13.3066 25.6573L13.8008 22.1982L11.1609 21.8211ZM14.6901 20.208L12.2193 20.7022L12.7423 23.3171L15.2131 22.8229L14.6901 20.208ZM16.3355 18.275L14.0148 20.5667L15.8885 22.4642L18.2092 20.1724L16.3355 18.275ZM24.4946 16.4387C22.664 18.2694 20.011 18.7814 17.7186 17.9673L16.8262 20.4802C20.0514 21.6256 23.795 20.9096 26.3802 18.3243L24.4946 16.4387Z" fill="#9B9B9B"/>
<circle cx="22" cy="9.33325" r="2" fill="#9B9B9B"/>
</g>
<defs>
<clipPath id="clip0_1_669">
<rect width="32" height="32" fill="white"/>
</clipPath>
</defs>
</svg>
