<svg width="17" height="16" viewBox="0 0 17 16" fill="none" xmlns="http://www.w3.org/2000/svg">
<path d="M0.5 2.17289C0.5 1.64878 0.683441 1.2164 1.05031 0.875745C1.41717 0.535074 1.89411 0.364746 2.4811 0.364746C3.05762 0.364746 3.52406 0.532448 3.88045 0.867883C4.24732 1.21379 4.43076 1.66451 4.43076 2.22006C4.43076 2.7232 4.25257 3.14247 3.89618 3.47791C3.52931 3.82381 3.04713 3.99677 2.44966 3.99677H2.43393C1.85742 3.99677 1.39098 3.82381 1.03458 3.47791C0.678189 3.132 0.5 2.69699 0.5 2.17289ZM0.704399 15.9305V5.42756H4.19491V15.9305H0.704399ZM6.12885 15.9305H9.61936V10.0659C9.61936 9.69898 9.66129 9.41596 9.74514 9.21681C9.89189 8.86042 10.1146 8.55906 10.4134 8.31274C10.7121 8.06641 11.0868 7.94325 11.5376 7.94325C12.7116 7.94325 13.2985 8.73464 13.2985 10.3174V15.9305H16.7891V9.90863C16.7891 8.35728 16.4222 7.18068 15.6884 6.37881C14.9547 5.57693 13.9851 5.17599 12.7797 5.17599C11.4275 5.17599 10.3741 5.75775 9.61936 6.92125V6.9527H9.60364L9.61936 6.92125V5.42756H6.12885C6.1498 5.76298 6.16029 6.80594 6.16029 8.55645C6.16029 10.3069 6.1498 12.765 6.12885 15.9305Z" fill="white"/>
</svg>
