<svg width="25" height="24" viewBox="0 0 25 24" fill="none" xmlns="http://www.w3.org/2000/svg">
<path d="M23.8164 18.8533L18.3964 13.9253C18.1402 13.6925 17.8035 13.5683 17.4574 13.579C17.1114 13.5897 16.783 13.7344 16.5417 13.9827L13.351 17.264C12.583 17.1173 11.039 16.636 9.44971 15.0507C7.86038 13.46 7.37904 11.912 7.23638 11.1493L10.515 7.95733C10.7636 7.71616 10.9086 7.38776 10.9193 7.0416C10.93 6.69545 10.8056 6.35871 10.5724 6.10266L5.64571 0.683993C5.41243 0.427135 5.08821 0.271332 4.74191 0.249673C4.39561 0.228013 4.05451 0.342204 3.79104 0.567993L0.89771 3.04933C0.667191 3.28068 0.529602 3.58859 0.511043 3.91466C0.491043 4.24799 0.109709 12.144 6.23238 18.2693C11.5737 23.6093 18.2644 24 20.107 24C20.3764 24 20.5417 23.992 20.5857 23.9893C20.9117 23.9711 21.2195 23.8329 21.4497 23.6013L23.9297 20.7067C24.1564 20.444 24.2714 20.1032 24.2502 19.7569C24.2291 19.4107 24.0734 19.0864 23.8164 18.8533Z" fill="white"/>
</svg>
