<svg width="32" height="32" viewBox="0 0 32 32" fill="none" xmlns="http://www.w3.org/2000/svg">
<circle cx="16.0007" cy="6.66667" r="2.66667" stroke="#9B9B9B" stroke-width="2.66667" stroke-linejoin="round"/>
<path d="M12 17.3335C12 19.5426 10.2091 21.3335 8 21.3335C5.79086 21.3335 4 19.5426 4 17.3335" stroke="#9B9B9B" stroke-width="2.66667" stroke-linejoin="round"/>
<path d="M28 17.3335C28 19.5426 26.2091 21.3335 24 21.3335C21.7909 21.3335 20 19.5426 20 17.3335" stroke="#9B9B9B" stroke-width="2.66667" stroke-linejoin="round"/>
<path d="M18.666 6.6665H27.9993" stroke="#9B9B9B" stroke-width="2.66667" stroke-linecap="round" stroke-linejoin="round"/>
<path d="M10.666 28L21.3327 28" stroke="#9B9B9B" stroke-width="2.66667" stroke-linecap="round" stroke-linejoin="round"/>
<path d="M4 6.6665H13.3333" stroke="#9B9B9B" stroke-width="2.66667" stroke-linecap="round" stroke-linejoin="round"/>
<path d="M16 9.3335V28.0002" stroke="#9B9B9B" stroke-width="2.66667" stroke-linecap="round" stroke-linejoin="round"/>
<path d="M4 17.3333L8 8L12 17.3333H4Z" stroke="#9B9B9B" stroke-width="2.66667" stroke-linecap="round" stroke-linejoin="round"/>
<path d="M20 17.3333L24 8L28 17.3333H20Z" stroke="#9B9B9B" stroke-width="2.66667" stroke-linecap="round" stroke-linejoin="round"/>
</svg>
