<svg width="32" height="32" viewBox="0 0 32 32" fill="none" xmlns="http://www.w3.org/2000/svg">
<path d="M25.3333 6V5.33333C25.3333 4.59695 24.7363 4 23.9999 4H12.6666L6.66659 10V26.6667C6.66659 27.403 7.26354 28 7.99992 28H8.66659" stroke="#9B9B9B" stroke-width="2.66667" stroke-linecap="round" stroke-linejoin="round"/>
<path d="M14 4V10C14 10.7364 13.403 11.3333 12.6667 11.3333H6.66667" stroke="#9B9B9B" stroke-width="2.66667" stroke-linecap="round"/>
<path d="M12 24.6666C14.6667 22.6665 14.3333 26.6664 15.3333 27.3332C16 27.7777 17.6667 24.6662 18 23.9997C18.3333 23.3333 19.3333 27.3332 22 27.3332" stroke="#9B9B9B" stroke-width="2.66667" stroke-linecap="round" stroke-linejoin="round"/>
<path d="M22.6667 12.0001C22.6667 11.2637 23.2637 10.6667 24.0001 10.6667L26.9903 10.6667C27.7267 10.6667 28.3236 11.2637 28.3236 12.0001V20.7615L25.4952 23.5899L22.6667 20.7615L22.6667 12.0001Z" stroke="#9B9B9B" stroke-width="2.66667" stroke-linecap="round" stroke-linejoin="round"/>
</svg>
