<svg width="28" height="28" viewBox="0 0 28 28" fill="none" xmlns="http://www.w3.org/2000/svg">
<path d="M11.0743 8.93042C11.6056 7.97267 11.4996 6.78722 10.8069 5.93926L7.98916 2.49026C7.48913 1.8782 6.57076 1.83233 6.0124 2.39152L3.24479 5.16326C1.21138 7.20288 1.99965 10.1748 3.26744 12.7725C6.10741 18.5914 9.99829 22.4757 15.2433 24.7663C17.8867 25.9208 20.8081 26.8288 22.8415 24.7892L25.6091 22.0174C26.1674 21.4582 26.1216 20.5385 25.5105 20.0377L22.0666 17.2158C21.2199 16.522 20.0362 16.4158 19.0799 16.9479L15.7649 18.7924C12.6022 16.5833 11.4839 15.4828 9.23266 12.2504L11.0743 8.93042Z" stroke="#9B9B9B" stroke-width="2.66667" stroke-linejoin="round"/>
</svg>
