<svg width="16" height="17" viewBox="0 0 16 17" fill="none" xmlns="http://www.w3.org/2000/svg">
<g clip-path="url(#clip0_114_856)">
<path d="M10.8348 5.07141C10.9093 5.05485 10.9424 5.07969 10.9876 5.12937C11.2443 5.4147 12.0646 6.41655 12.2875 6.68978C12.3289 6.73945 12.3003 6.79359 12.2672 6.82225C10.6112 8.11388 8.76866 9.9437 7.74198 11.2519C7.72159 11.2812 7.73815 11.2812 7.75471 11.2767C9.54313 10.5067 13.7448 9.27687 15.637 8.93358V6.53692L8.23111 0.678711L0.8125 6.53246V9.15267C3.1098 7.78716 8.42537 5.67137 10.8348 5.07141Z" fill="white"/>
<path d="M4.80769 15.1397C4.74591 15.1729 4.6956 15.1646 4.64592 15.1149L3.26321 13.4672C3.22627 13.4214 3.22181 13.3965 3.27149 13.3265C4.34021 11.7616 6.52159 9.32293 7.91258 8.29243C7.93742 8.27587 7.92914 8.25485 7.89984 8.26759C6.45089 8.73953 2.33206 10.5114 0.808594 11.3725V16.9689H15.6337V11.5795C13.6135 11.9228 7.56101 13.7239 4.80769 15.1397Z" fill="white"/>
</g>
<defs>
<clipPath id="clip0_114_856">
<rect width="14.8304" height="16.29" fill="white" transform="translate(0.808594 0.678711)"/>
</clipPath>
</defs>
</svg>
